<svg width="130" height="40" viewBox="0 0 130 40" fill="none" xmlns="http://www.w3.org/2000/svg">
<rect x="0.75" y="0.75" width="128.5" height="38.5" rx="9.25" stroke="#049CBD" stroke-width="1.5"/>
<path d="M35.4766 26H34.5078V20.5469H28.0078V26H27.0469V14.625H28.0078V19.7344H34.5078V14.625H35.4766V26ZM43.4922 26C43.3984 25.7344 43.3385 25.3411 43.3125 24.8203C42.9844 25.2474 42.5651 25.5781 42.0547 25.8125C41.5495 26.0417 41.013 26.1562 40.4453 26.1562C39.6328 26.1562 38.974 25.9297 38.4688 25.4766C37.9688 25.0234 37.7188 24.4505 37.7188 23.7578C37.7188 22.9349 38.0599 22.2839 38.7422 21.8047C39.4297 21.3255 40.3854 21.0859 41.6094 21.0859H43.3047V20.125C43.3047 19.5208 43.1172 19.0469 42.7422 18.7031C42.3724 18.3542 41.8307 18.1797 41.1172 18.1797C40.4661 18.1797 39.9271 18.3464 39.5 18.6797C39.0729 19.013 38.8594 19.4141 38.8594 19.8828L37.9219 19.875C37.9219 19.2031 38.2344 18.6224 38.8594 18.1328C39.4844 17.638 40.2526 17.3906 41.1641 17.3906C42.1068 17.3906 42.849 17.6276 43.3906 18.1016C43.9375 18.5703 44.2188 19.2266 44.2344 20.0703V24.0703C44.2344 24.888 44.3203 25.5 44.4922 25.9062V26H43.4922ZM40.5547 25.3281C41.1797 25.3281 41.737 25.1771 42.2266 24.875C42.7214 24.5729 43.0807 24.1693 43.3047 23.6641V21.8047H41.6328C40.7005 21.8151 39.9714 21.987 39.4453 22.3203C38.9193 22.6484 38.6562 23.1016 38.6562 23.6797C38.6562 24.1536 38.8307 24.5469 39.1797 24.8594C39.5339 25.1719 39.9922 25.3281 40.5547 25.3281ZM49.8594 25.3672C50.5104 25.3672 51.0547 25.1849 51.4922 24.8203C51.9349 24.4505 52.1745 23.974 52.2109 23.3906H53.1094C53.0833 23.9062 52.9219 24.3776 52.625 24.8047C52.3281 25.2266 51.9323 25.5573 51.4375 25.7969C50.9479 26.0365 50.4219 26.1562 49.8594 26.1562C48.75 26.1562 47.8698 25.7708 47.2188 25C46.5729 24.2292 46.25 23.1927 46.25 21.8906V21.6094C46.25 20.776 46.3958 20.0391 46.6875 19.3984C46.9792 18.7578 47.3958 18.263 47.9375 17.9141C48.4844 17.5651 49.1224 17.3906 49.8516 17.3906C50.7786 17.3906 51.5417 17.6667 52.1406 18.2188C52.7448 18.7708 53.0677 19.4974 53.1094 20.3984H52.2109C52.1693 19.737 51.9297 19.2031 51.4922 18.7969C51.0599 18.3906 50.513 18.1875 49.8516 18.1875C49.0078 18.1875 48.3516 18.4922 47.8828 19.1016C47.4193 19.7109 47.1875 20.5651 47.1875 21.6641V21.9375C47.1875 23.0156 47.4193 23.8568 47.8828 24.4609C48.3516 25.0651 49.0104 25.3672 49.8594 25.3672ZM61.0547 18.3438H57.9766V26H57.0391V18.3438H54.0781V17.5469H61.0547V18.3438ZM69.3906 21.8594C69.3906 23.1771 69.099 24.224 68.5156 25C67.9323 25.7708 67.151 26.1562 66.1719 26.1562C65.0156 26.1562 64.1302 25.75 63.5156 24.9375V29.25H62.5859V17.5469H63.4531L63.5 18.7422C64.1094 17.8411 64.9922 17.3906 66.1484 17.3906C67.1589 17.3906 67.9505 17.7734 68.5234 18.5391C69.1016 19.3047 69.3906 20.3672 69.3906 21.7266V21.8594ZM68.4531 21.6953C68.4531 20.6172 68.2318 19.7656 67.7891 19.1406C67.3464 18.5156 66.7292 18.2031 65.9375 18.2031C65.3646 18.2031 64.8724 18.3411 64.4609 18.6172C64.0495 18.8932 63.7344 19.2943 63.5156 19.8203V23.875C63.7396 24.3594 64.0599 24.7292 64.4766 24.9844C64.8932 25.2396 65.3854 25.3672 65.9531 25.3672C66.7396 25.3672 67.3516 25.0547 67.7891 24.4297C68.2318 23.7995 68.4531 22.888 68.4531 21.6953ZM70.9531 21.6484C70.9531 20.8359 71.1094 20.1042 71.4219 19.4531C71.7396 18.8021 72.1849 18.2969 72.7578 17.9375C73.3359 17.5729 73.9896 17.3906 74.7188 17.3906C75.8438 17.3906 76.7552 17.7865 77.4531 18.5781C78.151 19.3646 78.5 20.4089 78.5 21.7109V21.9062C78.5 22.724 78.3411 23.4609 78.0234 24.1172C77.7109 24.7682 77.2682 25.2708 76.6953 25.625C76.1224 25.9792 75.4688 26.1562 74.7344 26.1562C73.6146 26.1562 72.7031 25.763 72 24.9766C71.3021 24.1849 70.9531 23.138 70.9531 21.8359V21.6484ZM71.8906 21.9062C71.8906 22.9167 72.151 23.7474 72.6719 24.3984C73.1979 25.0443 73.8854 25.3672 74.7344 25.3672C75.5781 25.3672 76.2604 25.0443 76.7812 24.3984C77.3073 23.7474 77.5703 22.8906 77.5703 21.8281V21.6484C77.5703 21.0026 77.4505 20.4115 77.2109 19.875C76.9714 19.3385 76.6354 18.9245 76.2031 18.6328C75.7708 18.3359 75.276 18.1875 74.7188 18.1875C73.8854 18.1875 73.2057 18.5156 72.6797 19.1719C72.1536 19.8229 71.8906 20.6771 71.8906 21.7344V21.9062ZM85.9922 17.5469H86.9297V26H85.9922V19.0547L81.4297 26H80.5V17.5469H81.4297V24.5L85.9922 17.5469ZM95.5078 18.3438H92.4297V26H91.4922V18.3438H88.5312V17.5469H95.5078V18.3438ZM98.0781 20.6172H100.516C101.141 20.6172 101.688 20.7318 102.156 20.9609C102.63 21.1849 102.987 21.4974 103.227 21.8984C103.471 22.2995 103.594 22.7656 103.594 23.2969C103.594 24.1146 103.312 24.7708 102.75 25.2656C102.193 25.7552 101.438 26 100.484 26H97.1484V17.5469H98.0781V20.6172ZM98.0781 21.4141V25.2109H100.5C101.172 25.2109 101.698 25.0417 102.078 24.7031C102.464 24.3646 102.656 23.901 102.656 23.3125C102.656 22.75 102.469 22.2969 102.094 21.9531C101.724 21.6042 101.216 21.4245 100.57 21.4141H98.0781Z" fill="#2F3F50"/>
</svg>
