<svg width="120" height="120" viewBox="0 0 120 120" fill="none" xmlns="http://www.w3.org/2000/svg">
<circle cx="60" cy="60" r="59.25" stroke="#049CBD" stroke-width="1.5"/>
<path d="M42.2383 62.6797C42.043 64.4766 41.3984 65.8516 40.3047 66.8047C39.2188 67.7578 37.7695 68.2344 35.957 68.2344C34.6914 68.2344 33.5703 67.918 32.5938 67.2852C31.625 66.6523 30.875 65.7578 30.3438 64.6016C29.8125 63.4375 29.543 62.1094 29.5352 60.6172V58.4023C29.5352 56.8867 29.8008 55.543 30.332 54.3711C30.8633 53.1992 31.625 52.2969 32.6172 51.6641C33.6172 51.0234 34.7656 50.7031 36.0625 50.7031C37.8906 50.7031 39.332 51.1992 40.3867 52.1914C41.4492 53.1758 42.0664 54.5391 42.2383 56.2812H40.7852C40.4258 53.3828 38.8516 51.9336 36.0625 51.9336C34.5156 51.9336 33.2812 52.5117 32.3594 53.668C31.4453 54.8242 30.9883 56.4219 30.9883 58.4609V60.5469C30.9883 62.5156 31.4336 64.0859 32.3242 65.2578C33.2227 66.4297 34.4336 67.0156 35.957 67.0156C37.4648 67.0156 38.6016 66.6562 39.3672 65.9375C40.1328 65.2109 40.6055 64.125 40.7852 62.6797H42.2383ZM57.4688 52.168H51.6211V68H50.1797V52.168H44.3438V50.9375H57.4688V52.168ZM73.0156 60.3945C73.0156 61.9648 72.7422 63.3438 72.1953 64.5312C71.6562 65.7188 70.8828 66.6328 69.875 67.2734C68.8672 67.9141 67.7031 68.2344 66.3828 68.2344C64.3906 68.2344 62.7812 67.5234 61.5547 66.1016C60.3281 64.6719 59.7148 62.7461 59.7148 60.3242V58.5664C59.7148 57.0117 59.9883 55.6367 60.5352 54.4414C61.0898 53.2383 61.8711 52.3164 62.8789 51.6758C63.8867 51.0273 65.0469 50.7031 66.3594 50.7031C67.6719 50.7031 68.8281 51.0195 69.8281 51.6523C70.8359 52.2852 71.6133 53.1797 72.1602 54.3359C72.707 55.4922 72.9922 56.832 73.0156 58.3555V60.3945ZM71.5742 58.543C71.5742 56.4883 71.1094 54.8789 70.1797 53.7148C69.25 52.5508 67.9766 51.9688 66.3594 51.9688C64.7734 51.9688 63.5078 52.5547 62.5625 53.7266C61.625 54.8906 61.1562 56.5195 61.1562 58.6133V60.3945C61.1562 62.418 61.625 64.0234 62.5625 65.2109C63.5 66.3906 64.7734 66.9805 66.3828 66.9805C68.0156 66.9805 69.2891 66.3984 70.2031 65.2344C71.1172 64.0625 71.5742 62.4336 71.5742 60.3477V58.543ZM89.7461 68H88.3047V52.168H78.6484V68H77.207V50.9375H89.7461V68Z" fill="#2F3F50"/>
</svg>
