<svg width="130" height="40" viewBox="0 0 130 40" fill="none" xmlns="http://www.w3.org/2000/svg">
<rect x="0.75" y="0.75" width="128.5" height="38.5" rx="9.25" stroke="#049CBD" stroke-width="1.5"/>
<path d="M33.6172 19.263C33.6172 20.3099 33.4349 21.2292 33.0703 22.0208C32.7109 22.8125 32.1953 23.4219 31.5234 23.849C30.8516 24.276 30.0755 24.4896 29.1953 24.4896C27.8672 24.4896 26.7943 24.0156 25.9766 23.0677C25.1589 22.1146 24.75 20.8307 24.75 19.2161V18.0443C24.75 17.0078 24.9323 16.0911 25.2969 15.2943C25.6667 14.4922 26.1875 13.8776 26.8594 13.4505C27.5312 13.0182 28.3047 12.8021 29.1797 12.8021C30.0547 12.8021 30.8255 13.013 31.4922 13.4349C32.1641 13.8568 32.6823 14.4531 33.0469 15.224C33.4115 15.9948 33.6016 16.888 33.6172 17.9036V19.263ZM32.6562 18.0286C32.6562 16.6588 32.3464 15.5859 31.7266 14.8099C31.1068 14.0338 30.2578 13.6458 29.1797 13.6458C28.1224 13.6458 27.2786 14.0365 26.6484 14.8177C26.0234 15.5937 25.7109 16.6797 25.7109 18.0755V19.263C25.7109 20.612 26.0234 21.6823 26.6484 22.474C27.2734 23.2604 28.1224 23.6536 29.1953 23.6536C30.2839 23.6536 31.1328 23.2656 31.7422 22.4896C32.3516 21.7083 32.6562 20.6224 32.6562 19.2318V18.0286ZM41.8906 16.6771H38.8125V24.3333H37.875V16.6771H34.9141V15.8802H41.8906V16.6771ZM45.7266 20.4583H44.4297V24.3333H43.4844V15.8802H44.4297V19.6302H45.7109L48.8125 15.8802H49.9922L46.5234 19.9818L50.375 24.3333H49.1406L45.7266 20.4583ZM58.2266 15.8802V24.3333H57.2891V16.6849H53.8281L53.6797 19.849C53.6172 21.0208 53.5 21.9167 53.3281 22.5365C53.1562 23.151 52.901 23.6042 52.5625 23.8958C52.224 24.1875 51.7734 24.3333 51.2109 24.3333H50.8516V23.5052L51.1406 23.4896C51.6771 23.4792 52.0625 23.2187 52.2969 22.7083C52.5312 22.1979 52.6849 21.2865 52.7578 19.974L52.9297 15.8802H58.2266ZM61.7734 19.7318H64.1875C64.2135 18.9609 64.3906 18.2682 64.7188 17.6536C65.0469 17.0338 65.4922 16.5573 66.0547 16.224C66.6172 15.8906 67.2474 15.724 67.9453 15.724C69.0651 15.724 69.974 16.1198 70.6719 16.9115C71.375 17.7031 71.7266 18.75 71.7266 20.0521V20.2396C71.7266 21.0521 71.5677 21.7865 71.25 22.4427C70.9323 23.099 70.487 23.6042 69.9141 23.9583C69.3411 24.3125 68.6901 24.4896 67.9609 24.4896C66.8828 24.4896 65.9974 24.125 65.3047 23.3958C64.612 22.6615 64.2396 21.7057 64.1875 20.5286H61.7734V24.3333H60.8438V15.8802H61.7734V19.7318ZM65.1094 20.2396C65.1094 21.25 65.3698 22.0807 65.8906 22.7318C66.4167 23.3776 67.1068 23.7005 67.9609 23.7005C68.7995 23.7005 69.4792 23.3776 70 22.7318C70.526 22.0807 70.7891 21.224 70.7891 20.1615V19.9818C70.7891 18.9818 70.526 18.1562 70 17.5052C69.474 16.849 68.7891 16.5208 67.9453 16.5208C67.1068 16.5208 66.4245 16.849 65.8984 17.5052C65.3724 18.1562 65.1094 19.0104 65.1094 20.0677V20.2396ZM79.7734 24.3333H78.8359V20.7786C78.0651 21.0599 77.3281 21.2005 76.625 21.2005C75.5052 21.2005 74.6927 20.9557 74.1875 20.4661C73.6823 19.9713 73.4193 19.2031 73.3984 18.1615V15.8802H74.3281V18.1146C74.3385 18.9219 74.5156 19.5052 74.8594 19.8646C75.2083 20.2187 75.7969 20.3958 76.625 20.3958C77.3802 20.375 78.1172 20.2396 78.8359 19.9896V15.8802H79.7734V24.3333ZM87.8281 15.8802H88.7656V24.3333H87.8281V17.388L83.2656 24.3333H82.3359V15.8802H83.2656V22.8333L87.8281 15.8802ZM97.3438 16.6771H94.2656V24.3333H93.3281V16.6771H90.3672V15.8802H97.3438V16.6771ZM99.9141 18.9505H102.352C102.977 18.9505 103.523 19.0651 103.992 19.2943C104.466 19.5182 104.823 19.8307 105.062 20.2318C105.307 20.6328 105.43 21.099 105.43 21.6302C105.43 22.4479 105.148 23.1042 104.586 23.599C104.029 24.0885 103.273 24.3333 102.32 24.3333H98.9844V15.8802H99.9141V18.9505ZM99.9141 19.7474V23.5443H102.336C103.008 23.5443 103.534 23.375 103.914 23.0365C104.299 22.6979 104.492 22.2344 104.492 21.6458C104.492 21.0833 104.305 20.6302 103.93 20.2865C103.56 19.9375 103.052 19.7578 102.406 19.7474H99.9141Z" fill="#2F3F50"/>
</svg>
