<svg width="120" height="120" viewBox="0 0 120 120" fill="none" xmlns="http://www.w3.org/2000/svg">
<circle cx="60" cy="60" r="59.25" stroke="#049CBD" stroke-width="1.5"/>
<path d="M36.2383 62.6797C36.043 64.4766 35.3984 65.8516 34.3047 66.8047C33.2188 67.7578 31.7695 68.2344 29.957 68.2344C28.6914 68.2344 27.5703 67.918 26.5938 67.2852C25.625 66.6523 24.875 65.7578 24.3438 64.6016C23.8125 63.4375 23.543 62.1094 23.5352 60.6172V58.4023C23.5352 56.8867 23.8008 55.543 24.332 54.3711C24.8633 53.1992 25.625 52.2969 26.6172 51.6641C27.6172 51.0234 28.7656 50.7031 30.0625 50.7031C31.8906 50.7031 33.332 51.1992 34.3867 52.1914C35.4492 53.1758 36.0664 54.5391 36.2383 56.2812H34.7852C34.4258 53.3828 32.8516 51.9336 30.0625 51.9336C28.5156 51.9336 27.2812 52.5117 26.3594 53.668C25.4453 54.8242 24.9883 56.4219 24.9883 58.4609V60.5469C24.9883 62.5156 25.4336 64.0859 26.3242 65.2578C27.2227 66.4297 28.4336 67.0156 29.957 67.0156C31.4648 67.0156 32.6016 66.6562 33.3672 65.9375C34.1328 65.2109 34.6055 64.125 34.7852 62.6797H36.2383ZM51.4688 52.168H45.6211V68H44.1797V52.168H38.3438V50.9375H51.4688V52.168ZM63.0078 63.2188H55.2617L53.5039 68H51.9922L58.4492 50.9375H59.8203L66.2773 68H64.7773L63.0078 63.2188ZM55.707 61.9883H62.5508L59.1289 52.6953L55.707 61.9883ZM70.7383 61.0508V68H69.2969V50.9375H75.1094C76.8828 50.9375 78.2812 51.3906 79.3047 52.2969C80.3359 53.2031 80.8516 54.4492 80.8516 56.0352C80.8516 57.6367 80.3555 58.875 79.3633 59.75C78.3789 60.6172 76.9492 61.0508 75.0742 61.0508H70.7383ZM70.7383 59.832H75.1094C76.5078 59.832 77.5742 59.5 78.3086 58.8359C79.043 58.1719 79.4102 57.2461 79.4102 56.0586C79.4102 54.8789 79.043 53.9414 78.3086 53.2461C77.582 52.543 76.5469 52.1836 75.2031 52.168H70.7383V59.832ZM96.1641 52.168H90.3164V68H88.875V52.168H83.0391V50.9375H96.1641V52.168Z" fill="#2F3F50"/>
</svg>
