<svg width="130" height="40" viewBox="0 0 130 40" fill="none" xmlns="http://www.w3.org/2000/svg">
<rect x="0.75" y="0.75" width="128.5" height="38.5" rx="9.25" stroke="#049CBD" stroke-width="1.5"/>
<path d="M28.375 24.3333H27.4141V13.7786H20.9766V24.3333H20.0156V12.9583H28.375V24.3333ZM30.5703 19.9818C30.5703 19.1693 30.7266 18.4375 31.0391 17.7865C31.3568 17.1354 31.8021 16.6302 32.375 16.2708C32.9531 15.9062 33.6068 15.724 34.3359 15.724C35.4609 15.724 36.3724 16.1198 37.0703 16.9115C37.7682 17.6979 38.1172 18.7422 38.1172 20.0443V20.2396C38.1172 21.0573 37.9583 21.7943 37.6406 22.4505C37.3281 23.1016 36.8854 23.6042 36.3125 23.9583C35.7396 24.3125 35.0859 24.4896 34.3516 24.4896C33.2318 24.4896 32.3203 24.0963 31.6172 23.3099C30.9193 22.5182 30.5703 21.4713 30.5703 20.1693V19.9818ZM31.5078 20.2396C31.5078 21.25 31.7682 22.0807 32.2891 22.7318C32.8151 23.3776 33.5026 23.7005 34.3516 23.7005C35.1953 23.7005 35.8776 23.3776 36.3984 22.7318C36.9245 22.0807 37.1875 21.224 37.1875 20.1615V19.9818C37.1875 19.3359 37.0677 18.7448 36.8281 18.2083C36.5885 17.6719 36.2526 17.2578 35.8203 16.9661C35.388 16.6693 34.8932 16.5208 34.3359 16.5208C33.5026 16.5208 32.8229 16.849 32.2969 17.5052C31.7708 18.1562 31.5078 19.0104 31.5078 20.0677V20.2396ZM39.2969 23.5443L39.7109 23.0052C40.3672 22.1146 40.7448 20.8125 40.8438 19.099L40.9922 15.8802H45.9844V23.5443H46.8594V26.8177H45.9297V24.3333H39.5781V26.8177H38.6797L38.6875 23.5443H39.2969ZM40.375 23.5443H45.0469V16.7552H41.8828L41.7812 18.9505C41.6875 20.9661 41.2188 22.4974 40.375 23.5443ZM50.9609 20.4583H49.6641V24.3333H48.7188V15.8802H49.6641V19.6302H50.9453L54.0469 15.8802H55.2266L51.7578 19.9818L55.6094 24.3333H54.375L50.9609 20.4583ZM63.4609 15.8802V24.3333H62.5234V16.6849H59.0625L58.9141 19.849C58.8516 21.0208 58.7344 21.9167 58.5625 22.5365C58.3906 23.151 58.1354 23.6042 57.7969 23.8958C57.4583 24.1875 57.0078 24.3333 56.4453 24.3333H56.0859V23.5052L56.375 23.4896C56.9115 23.4792 57.2969 23.2187 57.5312 22.7083C57.7656 22.1979 57.9193 21.2865 57.9922 19.974L58.1641 15.8802H63.4609ZM67.0078 19.7318H69.4219C69.4479 18.9609 69.625 18.2682 69.9531 17.6536C70.2812 17.0338 70.7266 16.5573 71.2891 16.224C71.8516 15.8906 72.4818 15.724 73.1797 15.724C74.2995 15.724 75.2083 16.1198 75.9062 16.9115C76.6094 17.7031 76.9609 18.75 76.9609 20.0521V20.2396C76.9609 21.0521 76.8021 21.7865 76.4844 22.4427C76.1667 23.099 75.7214 23.6042 75.1484 23.9583C74.5755 24.3125 73.9245 24.4896 73.1953 24.4896C72.1172 24.4896 71.2318 24.125 70.5391 23.3958C69.8464 22.6615 69.474 21.7057 69.4219 20.5286H67.0078V24.3333H66.0781V15.8802H67.0078V19.7318ZM70.3438 20.2396C70.3438 21.25 70.6042 22.0807 71.125 22.7318C71.651 23.3776 72.3411 23.7005 73.1953 23.7005C74.0339 23.7005 74.7135 23.3776 75.2344 22.7318C75.7604 22.0807 76.0234 21.224 76.0234 20.1615V19.9818C76.0234 18.9818 75.7604 18.1562 75.2344 17.5052C74.7083 16.849 74.0234 16.5208 73.1797 16.5208C72.3411 16.5208 71.6589 16.849 71.1328 17.5052C70.6068 18.1562 70.3438 19.0104 70.3438 20.0677V20.2396ZM85.0078 24.3333H84.0703V20.7786C83.2995 21.0599 82.5625 21.2005 81.8594 21.2005C80.7396 21.2005 79.9271 20.9557 79.4219 20.4661C78.9167 19.9713 78.6536 19.2031 78.6328 18.1615V15.8802H79.5625V18.1146C79.5729 18.9219 79.75 19.5052 80.0938 19.8646C80.4427 20.2187 81.0312 20.3958 81.8594 20.3958C82.6146 20.375 83.3516 20.2396 84.0703 19.9896V15.8802H85.0078V24.3333ZM93.0625 15.8802H94V24.3333H93.0625V17.388L88.5 24.3333H87.5703V15.8802H88.5V22.8333L93.0625 15.8802ZM102.578 16.6771H99.5V24.3333H98.5625V16.6771H95.6016V15.8802H102.578V16.6771ZM105.148 18.9505H107.586C108.211 18.9505 108.758 19.0651 109.227 19.2943C109.701 19.5182 110.057 19.8307 110.297 20.2318C110.542 20.6328 110.664 21.099 110.664 21.6302C110.664 22.4479 110.383 23.1042 109.82 23.599C109.263 24.0885 108.508 24.3333 107.555 24.3333H104.219V15.8802H105.148V18.9505ZM105.148 19.7474V23.5443H107.57C108.242 23.5443 108.768 23.375 109.148 23.0365C109.534 22.6979 109.727 22.2344 109.727 21.6458C109.727 21.0833 109.539 20.6302 109.164 20.2865C108.794 19.9375 108.286 19.7578 107.641 19.7474H105.148Z" fill="#2F3F50"/>
</svg>
