<svg width="130" height="40" viewBox="0 0 130 40" fill="none" xmlns="http://www.w3.org/2000/svg">
<rect x="0.75" y="0.75" width="128.5" height="38.5" rx="9.25" stroke="#049CBD" stroke-width="1.5"/>
<path d="M33.6797 25.6667H32.7187V15.112H26.2812V25.6667H25.3203V14.2917H33.6797V25.6667ZM35.875 21.3151C35.875 20.5026 36.0312 19.7708 36.3437 19.1198C36.6615 18.4687 37.1068 17.9635 37.6797 17.6042C38.2578 17.2396 38.9115 17.0573 39.6406 17.0573C40.7656 17.0573 41.6771 17.4531 42.375 18.2448C43.0729 19.0312 43.4219 20.0755 43.4219 21.3776V21.5729C43.4219 22.3906 43.263 23.1276 42.9453 23.7838C42.6328 24.4349 42.1901 24.9375 41.6172 25.2917C41.0443 25.6458 40.3906 25.8229 39.6562 25.8229C38.5365 25.8229 37.625 25.4297 36.9219 24.6432C36.224 23.8516 35.875 22.8047 35.875 21.5026V21.3151ZM36.8125 21.5729C36.8125 22.5833 37.0729 23.4141 37.5937 24.0651C38.1198 24.7109 38.8073 25.0338 39.6562 25.0338C40.5 25.0338 41.1823 24.7109 41.7031 24.0651C42.2292 23.4141 42.4922 22.5573 42.4922 21.4948V21.3151C42.4922 20.6693 42.3724 20.0781 42.1328 19.5417C41.8932 19.0052 41.5573 18.5911 41.125 18.2995C40.6927 18.0026 40.1979 17.8542 39.6406 17.8542C38.8073 17.8542 38.1276 18.1823 37.6016 18.8385C37.0755 19.4896 36.8125 20.3437 36.8125 21.401V21.5729ZM51.8516 25.6667H50.9141V18.0182H46.3594V25.6667H45.4219V17.2135H51.8516V25.6667ZM59.6953 25.6667C59.6016 25.401 59.5417 25.0078 59.5156 24.487C59.1875 24.9141 58.7682 25.2448 58.2578 25.4792C57.7526 25.7083 57.2161 25.8229 56.6484 25.8229C55.8359 25.8229 55.1771 25.5963 54.6719 25.1432C54.1719 24.6901 53.9219 24.1172 53.9219 23.4245C53.9219 22.6016 54.263 21.9505 54.9453 21.4713C55.6328 20.9922 56.5885 20.7526 57.8125 20.7526H59.5078V19.7917C59.5078 19.1875 59.3203 18.7135 58.9453 18.3698C58.5755 18.0208 58.0338 17.8463 57.3203 17.8463C56.6693 17.8463 56.1302 18.013 55.7031 18.3463C55.276 18.6797 55.0625 19.0807 55.0625 19.5495L54.125 19.5417C54.125 18.8698 54.4375 18.2891 55.0625 17.7995C55.6875 17.3047 56.4557 17.0573 57.3672 17.0573C58.3099 17.0573 59.0521 17.2943 59.5937 17.7682C60.1406 18.237 60.4219 18.8932 60.4375 19.737V23.737C60.4375 24.5547 60.5234 25.1667 60.6953 25.5729V25.6667H59.6953ZM56.7578 24.9948C57.3828 24.9948 57.9401 24.8437 58.4297 24.5417C58.9245 24.2396 59.2838 23.8359 59.5078 23.3307V21.4713H57.8359C56.9036 21.4818 56.1745 21.6536 55.6484 21.987C55.1224 22.3151 54.8594 22.7682 54.8594 23.3463C54.8594 23.8203 55.0338 24.2135 55.3828 24.526C55.737 24.8385 56.1953 24.9948 56.7578 24.9948ZM62.7422 24.8776L63.1562 24.3385C63.8125 23.4479 64.1901 22.1458 64.2891 20.4323L64.4375 17.2135H69.4297V24.8776H70.3047V28.151H69.375V25.6667H63.0234V28.151H62.125L62.1328 24.8776H62.7422ZM63.8203 24.8776H68.4922V18.0885H65.3281L65.2266 20.2838C65.1328 22.2995 64.6641 23.8307 63.8203 24.8776ZM77.4453 25.6667C77.3516 25.401 77.2917 25.0078 77.2656 24.487C76.9375 24.9141 76.5182 25.2448 76.0078 25.4792C75.5026 25.7083 74.9661 25.8229 74.3984 25.8229C73.5859 25.8229 72.9271 25.5963 72.4219 25.1432C71.9219 24.6901 71.6719 24.1172 71.6719 23.4245C71.6719 22.6016 72.013 21.9505 72.6953 21.4713C73.3828 20.9922 74.3385 20.7526 75.5625 20.7526H77.2578V19.7917C77.2578 19.1875 77.0703 18.7135 76.6953 18.3698C76.3255 18.0208 75.7838 17.8463 75.0703 17.8463C74.4193 17.8463 73.8802 18.013 73.4531 18.3463C73.026 18.6797 72.8125 19.0807 72.8125 19.5495L71.875 19.5417C71.875 18.8698 72.1875 18.2891 72.8125 17.7995C73.4375 17.3047 74.2057 17.0573 75.1172 17.0573C76.0599 17.0573 76.8021 17.2943 77.3437 17.7682C77.8906 18.237 78.1719 18.8932 78.1875 19.737V23.737C78.1875 24.5547 78.2734 25.1667 78.4453 25.5729V25.6667H77.4453ZM74.5078 24.9948C75.1328 24.9948 75.6901 24.8437 76.1797 24.5417C76.6745 24.2396 77.0338 23.8359 77.2578 23.3307V21.4713H75.5859C74.6536 21.4818 73.9245 21.6536 73.3984 21.987C72.8724 22.3151 72.6094 22.7682 72.6094 23.3463C72.6094 23.8203 72.7838 24.2135 73.1328 24.526C73.487 24.8385 73.9453 24.9948 74.5078 24.9948ZM87.1797 25.6667H86.2422V21.7917H81.6875V25.6667H80.75V17.2135H81.6875V21.0026H86.2422V17.2135H87.1797V25.6667ZM95.2422 17.2135H96.1797V25.6667H95.2422V18.7213L90.6797 25.6667H89.75V17.2135H90.6797V24.1667L95.2422 17.2135ZM104.852 17.2135V25.6667H103.914V22.2604H101.289L99.2266 25.6667H98.1953L100.32 22.1432C99.7422 21.9922 99.2917 21.7005 98.9687 21.2682C98.651 20.8359 98.4922 20.3255 98.4922 19.737C98.4922 18.9713 98.7656 18.3594 99.3125 17.901C99.8646 17.4427 100.609 17.2135 101.547 17.2135H104.852ZM99.4297 19.7526C99.4297 20.2474 99.5859 20.6536 99.8984 20.9713C100.216 21.2891 100.656 21.4531 101.219 21.4635H103.914V18.0104H101.523C100.872 18.0104 100.359 18.1667 99.9844 18.4792C99.6146 18.7917 99.4297 19.2161 99.4297 19.7526Z" fill="#2F3F50"/>
</svg>
