<svg width="153" height="39" viewBox="0 0 153 39" fill="none" xmlns="http://www.w3.org/2000/svg">
<rect x="0.75" y="0.75" width="151.5" height="37.5" rx="9.25" stroke="#049CBD" stroke-width="1.5"/>
<path d="M59.6407 13.5453H53.7422V24.1H52.7813V12.725H59.6407V13.5453ZM59.3985 19.7484C59.3985 18.9359 59.5547 18.2041 59.8672 17.5531C60.1849 16.9021 60.6303 16.3969 61.2032 16.0375C61.7813 15.6729 62.4349 15.4906 63.1641 15.4906C64.2891 15.4906 65.2006 15.8864 65.8985 16.6781C66.5964 17.4646 66.9454 18.5088 66.9454 19.8109V20.0062C66.9454 20.8239 66.7865 21.5609 66.4688 22.2172C66.1563 22.8682 65.7136 23.3708 65.1407 23.725C64.5678 24.0791 63.9141 24.2562 63.1797 24.2562C62.0599 24.2562 61.1485 23.863 60.4454 23.0765C59.7474 22.2849 59.3985 21.238 59.3985 19.9359V19.7484ZM60.336 20.0062C60.336 21.0166 60.5964 21.8474 61.1172 22.4984C61.6433 23.1442 62.3308 23.4672 63.1797 23.4672C64.0235 23.4672 64.7058 23.1442 65.2266 22.4984C65.7527 21.8474 66.0157 20.9906 66.0157 19.9281V19.7484C66.0157 19.1026 65.8959 18.5114 65.6563 17.975C65.4167 17.4385 65.0808 17.0245 64.6485 16.7328C64.2162 16.4359 63.7214 16.2875 63.1641 16.2875C62.3308 16.2875 61.6511 16.6156 61.125 17.2719C60.599 17.9229 60.336 18.7771 60.336 19.8344V20.0062ZM74.7813 16.4437H71.7032V24.1H70.7657V16.4437H67.8047V15.6469H74.7813V16.4437ZM75.4766 19.7484C75.4766 18.9359 75.6329 18.2041 75.9454 17.5531C76.2631 16.9021 76.7084 16.3969 77.2813 16.0375C77.8594 15.6729 78.5131 15.4906 79.2422 15.4906C80.3672 15.4906 81.2787 15.8864 81.9766 16.6781C82.6745 17.4646 83.0235 18.5088 83.0235 19.8109V20.0062C83.0235 20.8239 82.8646 21.5609 82.5469 22.2172C82.2344 22.8682 81.7917 23.3708 81.2188 23.725C80.6459 24.0791 79.9922 24.2562 79.2579 24.2562C78.1381 24.2562 77.2266 23.863 76.5235 23.0765C75.8256 22.2849 75.4766 21.238 75.4766 19.9359V19.7484ZM76.4141 20.0062C76.4141 21.0166 76.6745 21.8474 77.1954 22.4984C77.7214 23.1442 78.4089 23.4672 79.2579 23.4672C80.1016 23.4672 80.7839 23.1442 81.3047 22.4984C81.8308 21.8474 82.0938 20.9906 82.0938 19.9281V19.7484C82.0938 19.1026 81.974 18.5114 81.7344 17.975C81.4948 17.4385 81.1589 17.0245 80.7266 16.7328C80.2943 16.4359 79.7995 16.2875 79.2422 16.2875C78.4089 16.2875 77.7292 16.6156 77.2032 17.2719C76.6771 17.9229 76.4141 18.7771 76.4141 19.8344V20.0062ZM85.0625 24.1V15.6469H88.1641C89.237 15.6469 90.0599 15.8396 90.6329 16.225C91.2058 16.6052 91.4922 17.1651 91.4922 17.9047C91.4922 18.3265 91.3646 18.7041 91.1094 19.0375C90.8542 19.3656 90.4818 19.6052 89.9922 19.7562C90.5443 19.8604 90.987 20.0974 91.3204 20.4672C91.6589 20.837 91.8282 21.2666 91.8282 21.7562C91.8282 22.501 91.5521 23.0791 91 23.4906C90.4532 23.8969 89.6771 24.1 88.6719 24.1H85.0625ZM85.9922 20.2094V23.3187H88.7032C89.4063 23.3187 89.948 23.1833 90.3282 22.9125C90.7084 22.6416 90.8985 22.251 90.8985 21.7406C90.8985 21.2719 90.7084 20.8995 90.3282 20.6234C89.948 20.3474 89.4063 20.2094 88.7032 20.2094H85.9922ZM85.9922 19.4281H88.3594C89.8282 19.4073 90.5625 18.9073 90.5625 17.9281C90.5625 17.4125 90.3594 17.0375 89.9532 16.8031C89.5521 16.5635 88.9558 16.4437 88.1641 16.4437H85.9922V19.4281ZM93.3985 19.7484C93.3985 18.9359 93.5547 18.2041 93.8672 17.5531C94.1849 16.9021 94.6303 16.3969 95.2032 16.0375C95.7813 15.6729 96.4349 15.4906 97.1641 15.4906C98.2891 15.4906 99.2006 15.8864 99.8985 16.6781C100.596 17.4646 100.945 18.5088 100.945 19.8109V20.0062C100.945 20.8239 100.787 21.5609 100.469 22.2172C100.156 22.8682 99.7136 23.3708 99.1407 23.725C98.5678 24.0791 97.9141 24.2562 97.1797 24.2562C96.0599 24.2562 95.1485 23.863 94.4454 23.0765C93.7474 22.2849 93.3985 21.238 93.3985 19.9359V19.7484ZM94.336 20.0062C94.336 21.0166 94.5964 21.8474 95.1172 22.4984C95.6433 23.1442 96.3308 23.4672 97.1797 23.4672C98.0235 23.4672 98.7058 23.1442 99.2266 22.4984C99.7526 21.8474 100.016 20.9906 100.016 19.9281V19.7484C100.016 19.1026 99.8959 18.5114 99.6563 17.975C99.4167 17.4385 99.0808 17.0245 98.6485 16.7328C98.2162 16.4359 97.7214 16.2875 97.1641 16.2875C96.3308 16.2875 95.6511 16.6156 95.125 17.2719C94.599 17.9229 94.336 18.7771 94.336 19.8344V20.0062Z" fill="#2F3F50"/>
</svg>
