<svg width="130" height="40" viewBox="0 0 130 40" fill="none" xmlns="http://www.w3.org/2000/svg">
<rect x="0.75" y="0.75" width="128.5" height="38.5" rx="9.25" stroke="#049CBD" stroke-width="1.5"/>
<path d="M52.6363 22.1198C52.5061 23.3177 52.0764 24.2344 51.3472 24.8698C50.6233 25.5052 49.6571 25.8229 48.4488 25.8229C47.605 25.8229 46.8577 25.612 46.2066 25.1901C45.5608 24.7682 45.0608 24.1719 44.7066 23.401C44.3524 22.625 44.1728 21.7396 44.1675 20.7448V19.2682C44.1675 18.2578 44.3446 17.362 44.6988 16.5807C45.053 15.7995 45.5608 15.1979 46.2222 14.776C46.8889 14.3489 47.6545 14.1354 48.5191 14.1354C49.7379 14.1354 50.6988 14.4661 51.4019 15.1276C52.1103 15.7838 52.5217 16.6927 52.6363 17.8542H51.6675C51.428 15.9219 50.3785 14.9557 48.5191 14.9557C47.4879 14.9557 46.6649 15.3411 46.0504 16.112C45.441 16.8828 45.1363 17.9479 45.1363 19.3073V20.6979C45.1363 22.0104 45.4332 23.0573 46.0269 23.8385C46.6259 24.6198 47.4332 25.0104 48.4488 25.0104C49.454 25.0104 50.2118 24.7708 50.7222 24.2917C51.2327 23.8073 51.5478 23.0833 51.6675 22.1198H52.6363ZM58.1597 17.776C59.2327 17.776 60.1024 18.1276 60.7691 18.8307C61.4358 19.5286 61.7691 20.4557 61.7691 21.612V21.8151C61.7691 22.5807 61.6155 23.2708 61.3082 23.8854C61.0061 24.4948 60.5686 24.9713 59.9957 25.3151C59.428 25.6536 58.7743 25.8229 58.0347 25.8229C56.9202 25.8229 56.0165 25.4531 55.3238 24.7135C54.6363 23.9687 54.2925 22.9766 54.2925 21.737V20.987C54.2925 19.237 54.6259 17.8385 55.2925 16.7917C55.9592 15.7448 56.9071 15.1198 58.1363 14.9167C58.9123 14.7917 59.4566 14.6224 59.7691 14.4088C60.0868 14.1953 60.2457 13.9036 60.2457 13.5338H61.0504C61.0504 13.9713 60.9592 14.3333 60.7769 14.6198C60.5946 14.9062 60.3212 15.138 59.9566 15.3151C59.592 15.487 59.0347 15.6328 58.2847 15.7526C57.4254 15.888 56.7327 16.2552 56.2066 16.8542C55.6858 17.4479 55.3472 18.2448 55.191 19.2448C55.5243 18.8073 55.941 18.4531 56.441 18.1823C56.9462 17.9114 57.5191 17.776 58.1597 17.776ZM55.23 21.6198V21.8151C55.23 22.7682 55.4879 23.5443 56.0035 24.1432C56.5191 24.737 57.1962 25.0338 58.0347 25.0338C58.8785 25.0338 59.5556 24.7344 60.066 24.1354C60.5764 23.5312 60.8316 22.7396 60.8316 21.7604V21.5573C60.8316 20.6771 60.5712 19.9583 60.0504 19.401C59.5347 18.8437 58.8577 18.5651 58.0191 18.5651C57.1806 18.5651 56.5061 18.8489 55.9957 19.4167C55.4853 19.9792 55.23 20.7135 55.23 21.6198ZM70.2222 21.526C70.2222 22.8437 69.9306 23.8906 69.3472 24.6667C68.7639 25.4375 67.9827 25.8229 67.0035 25.8229C65.8472 25.8229 64.9618 25.4167 64.3472 24.6042V28.9167H63.4175V17.2135H64.2847L64.3316 18.4088C64.941 17.5078 65.8238 17.0573 66.98 17.0573C67.9905 17.0573 68.7821 17.4401 69.355 18.2057C69.9332 18.9713 70.2222 20.0338 70.2222 21.3932V21.526ZM69.2847 21.362C69.2847 20.2838 69.0634 19.4323 68.6207 18.8073C68.178 18.1823 67.5608 17.8698 66.7691 17.8698C66.1962 17.8698 65.704 18.0078 65.2925 18.2838C64.8811 18.5599 64.566 18.9609 64.3472 19.487V23.5417C64.5712 24.026 64.8915 24.3958 65.3082 24.651C65.7248 24.9062 66.217 25.0338 66.7847 25.0338C67.5712 25.0338 68.1832 24.7213 68.6207 24.0963C69.0634 23.4661 69.2847 22.5547 69.2847 21.362ZM71.7847 21.3151C71.7847 20.5026 71.941 19.7708 72.2535 19.1198C72.5712 18.4687 73.0165 17.9635 73.5894 17.6042C74.1675 17.2396 74.8212 17.0573 75.5504 17.0573C76.6754 17.0573 77.5868 17.4531 78.2847 18.2448C78.9827 19.0312 79.3316 20.0755 79.3316 21.3776V21.5729C79.3316 22.3906 79.1728 23.1276 78.855 23.7838C78.5425 24.4349 78.0998 24.9375 77.5269 25.2917C76.954 25.6458 76.3004 25.8229 75.566 25.8229C74.4462 25.8229 73.5347 25.4297 72.8316 24.6432C72.1337 23.8516 71.7847 22.8047 71.7847 21.5026V21.3151ZM72.7222 21.5729C72.7222 22.5833 72.9827 23.4141 73.5035 24.0651C74.0295 24.7109 74.717 25.0338 75.566 25.0338C76.4097 25.0338 77.092 24.7109 77.6129 24.0651C78.1389 23.4141 78.4019 22.5573 78.4019 21.4948V21.3151C78.4019 20.6693 78.2821 20.0781 78.0425 19.5417C77.803 19.0052 77.467 18.5911 77.0347 18.2995C76.6024 18.0026 76.1077 17.8542 75.5504 17.8542C74.717 17.8542 74.0373 18.1823 73.5113 18.8385C72.9853 19.4896 72.7222 20.3437 72.7222 21.401V21.5729ZM84.3941 25.0338C85.0452 25.0338 85.5894 24.8516 86.0269 24.487C86.4696 24.1172 86.7092 23.6406 86.7457 23.0573H87.6441C87.6181 23.5729 87.4566 24.0443 87.1597 24.4713C86.8629 24.8932 86.467 25.2239 85.9722 25.4635C85.4827 25.7031 84.9566 25.8229 84.3941 25.8229C83.2847 25.8229 82.4045 25.4375 81.7535 24.6667C81.1077 23.8958 80.7847 22.8594 80.7847 21.5573V21.276C80.7847 20.4427 80.9306 19.7057 81.2222 19.0651C81.5139 18.4245 81.9306 17.9297 82.4722 17.5807C83.0191 17.2318 83.6571 17.0573 84.3863 17.0573C85.3134 17.0573 86.0764 17.3333 86.6754 17.8854C87.2795 18.4375 87.6024 19.1641 87.6441 20.0651H86.7457C86.704 19.4036 86.4644 18.8698 86.0269 18.4635C85.5946 18.0573 85.0478 17.8542 84.3863 17.8542C83.5425 17.8542 82.8863 18.1588 82.4175 18.7682C81.954 19.3776 81.7222 20.2318 81.7222 21.3307V21.6042C81.7222 22.6823 81.954 23.5234 82.4175 24.1276C82.8863 24.7318 83.5452 25.0338 84.3941 25.0338Z" fill="#2F3F50"/>
</svg>
