<svg width="153" height="39" viewBox="0 0 153 39" fill="none" xmlns="http://www.w3.org/2000/svg">
<rect x="0.75" y="0.75" width="151.5" height="37.5" rx="9.25" stroke="#049CBD" stroke-width="1.5"/>
<path d="M31.6016 24.1H30.6407V13.5453H24.2032V24.1H23.2422V12.725H31.6016V24.1ZM33.7969 19.7484C33.7969 18.9359 33.9532 18.2041 34.2657 17.5531C34.5834 16.9021 35.0287 16.3969 35.6016 16.0375C36.1797 15.6729 36.8334 15.4906 37.5625 15.4906C38.6875 15.4906 39.599 15.8864 40.2969 16.6781C40.9948 17.4646 41.3438 18.5088 41.3438 19.8109V20.0062C41.3438 20.8239 41.1849 21.5609 40.8672 22.2172C40.5547 22.8682 40.112 23.3708 39.5391 23.725C38.9662 24.0791 38.3125 24.2562 37.5782 24.2562C36.4584 24.2562 35.5469 23.863 34.8438 23.0765C34.1459 22.2849 33.7969 21.238 33.7969 19.9359V19.7484ZM34.7344 20.0062C34.7344 21.0166 34.9948 21.8474 35.5157 22.4984C36.0417 23.1442 36.7292 23.4672 37.5782 23.4672C38.4219 23.4672 39.1042 23.1442 39.625 22.4984C40.1511 21.8474 40.4141 20.9906 40.4141 19.9281V19.7484C40.4141 19.1026 40.2943 18.5114 40.0547 17.975C39.8152 17.4385 39.4792 17.0245 39.0469 16.7328C38.6146 16.4359 38.1198 16.2875 37.5625 16.2875C36.7292 16.2875 36.0495 16.6156 35.5235 17.2719C34.9974 17.9229 34.7344 18.7771 34.7344 19.8344V20.0062ZM49.8516 22.7562L52.3204 15.6469H53.3282L49.7188 25.5375L49.5313 25.975C49.0678 27.001 48.3516 27.514 47.3829 27.514C47.1589 27.514 46.9193 27.4776 46.6641 27.4047L46.6563 26.6312L47.1407 26.6781C47.599 26.6781 47.9688 26.5635 48.25 26.3344C48.5365 26.1104 48.7787 25.7224 48.9766 25.1703L49.3907 24.0297L46.2032 15.6469H47.2266L49.8516 22.7562ZM59.461 22.8344L62.8204 15.6469H63.9766V24.1H63.0391V17.1625L59.7891 24.1H59.125L55.8125 17.0062V24.1H54.8829V15.6469H56.1094L59.461 22.8344ZM65.9688 19.7484C65.9688 18.9359 66.125 18.2041 66.4375 17.5531C66.7553 16.9021 67.2006 16.3969 67.7735 16.0375C68.3516 15.6729 69.0053 15.4906 69.7344 15.4906C70.8594 15.4906 71.7709 15.8864 72.4688 16.6781C73.1667 17.4646 73.5157 18.5088 73.5157 19.8109V20.0062C73.5157 20.8239 73.3568 21.5609 73.0391 22.2172C72.7266 22.8682 72.2839 23.3708 71.711 23.725C71.1381 24.0791 70.4844 24.2562 69.75 24.2562C68.6303 24.2562 67.7188 23.863 67.0157 23.0765C66.3178 22.2849 65.9688 21.238 65.9688 19.9359V19.7484ZM66.9063 20.0062C66.9063 21.0166 67.1667 21.8474 67.6875 22.4984C68.2136 23.1442 68.9011 23.4672 69.75 23.4672C70.5938 23.4672 71.2761 23.1442 71.7969 22.4984C72.323 21.8474 72.586 20.9906 72.586 19.9281V19.7484C72.586 19.1026 72.4662 18.5114 72.2266 17.975C71.987 17.4385 71.6511 17.0245 71.2188 16.7328C70.7865 16.4359 70.2917 16.2875 69.7344 16.2875C68.9011 16.2875 68.2214 16.6156 67.6954 17.2719C67.1693 17.9229 66.9063 18.7771 66.9063 19.8344V20.0062ZM81.8282 15.6469V24.1H80.8907V16.4515H77.4297L77.2813 19.6156C77.2188 20.7875 77.1016 21.6833 76.9297 22.3031C76.7579 22.9177 76.5027 23.3708 76.1641 23.6625C75.8256 23.9541 75.375 24.1 74.8125 24.1H74.4532V23.2719L74.7422 23.2562C75.2787 23.2458 75.6641 22.9854 75.8985 22.475C76.1329 21.9646 76.2865 21.0531 76.3594 19.7406L76.5313 15.6469H81.8282ZM90.3594 24.1H89.4219V20.5453C88.6511 20.8265 87.9141 20.9672 87.211 20.9672C86.0912 20.9672 85.2787 20.7224 84.7735 20.2328C84.2683 19.738 84.0053 18.9698 83.9844 17.9281V15.6469H84.9141V17.8812C84.9245 18.6885 85.1016 19.2719 85.4454 19.6312C85.7943 19.9854 86.3829 20.1625 87.211 20.1625C87.9662 20.1416 88.7032 20.0062 89.4219 19.7562V15.6469H90.3594V24.1ZM98.1954 24.1C98.1016 23.8344 98.0417 23.4411 98.0157 22.9203C97.6875 23.3474 97.2683 23.6781 96.7579 23.9125C96.2526 24.1416 95.7162 24.2562 95.1485 24.2562C94.336 24.2562 93.6771 24.0297 93.1719 23.5765C92.6719 23.1234 92.4219 22.5505 92.4219 21.8578C92.4219 21.0349 92.7631 20.3838 93.4454 19.9047C94.1329 19.4255 95.0886 19.1859 96.3125 19.1859H98.0079V18.225C98.0079 17.6208 97.8204 17.1469 97.4454 16.8031C97.0756 16.4541 96.5339 16.2797 95.8204 16.2797C95.1693 16.2797 94.6303 16.4463 94.2032 16.7797C93.7761 17.113 93.5625 17.514 93.5625 17.9828L92.625 17.975C92.625 17.3031 92.9375 16.7224 93.5625 16.2328C94.1875 15.738 94.9558 15.4906 95.8672 15.4906C96.8099 15.4906 97.5521 15.7276 98.0938 16.2015C98.6407 16.6703 98.9219 17.3265 98.9375 18.1703V22.1703C98.9375 22.988 99.0235 23.6 99.1954 24.0062V24.1H98.1954ZM95.2579 23.4281C95.8829 23.4281 96.4401 23.2771 96.9297 22.975C97.4245 22.6729 97.7839 22.2692 98.0079 21.764V19.9047H96.336C95.4037 19.9151 94.6745 20.087 94.1485 20.4203C93.6224 20.7484 93.3594 21.2015 93.3594 21.7797C93.3594 22.2536 93.5339 22.6469 93.8829 22.9594C94.237 23.2719 94.6954 23.4281 95.2579 23.4281ZM107.93 24.1H106.992V20.225H102.438V24.1H101.5V15.6469H102.438V19.4359H106.992V15.6469H107.93V24.1ZM115.992 15.6469H116.93V24.1H115.992V17.1547L111.43 24.1H110.5V15.6469H111.43V22.6L115.992 15.6469ZM120.469 19.4984H122.883C122.909 18.7276 123.086 18.0349 123.414 17.4203C123.742 16.8005 124.188 16.3239 124.75 15.9906C125.313 15.6573 125.943 15.4906 126.641 15.4906C127.76 15.4906 128.669 15.8864 129.367 16.6781C130.07 17.4698 130.422 18.5166 130.422 19.8187V20.0062C130.422 20.8187 130.263 21.5531 129.945 22.2094C129.628 22.8656 129.182 23.3708 128.609 23.725C128.037 24.0791 127.385 24.2562 126.656 24.2562C125.578 24.2562 124.693 23.8916 124 23.1625C123.307 22.4281 122.935 21.4724 122.883 20.2953H120.469V24.1H119.539V15.6469H120.469V19.4984ZM123.805 20.0062C123.805 21.0166 124.065 21.8474 124.586 22.4984C125.112 23.1442 125.802 23.4672 126.656 23.4672C127.495 23.4672 128.175 23.1442 128.695 22.4984C129.221 21.8474 129.484 20.9906 129.484 19.9281V19.7484C129.484 18.7484 129.221 17.9229 128.695 17.2719C128.169 16.6156 127.484 16.2875 126.641 16.2875C125.802 16.2875 125.12 16.6156 124.594 17.2719C124.068 17.9229 123.805 18.7771 123.805 19.8344V20.0062Z" fill="#2F3F50"/>
</svg>
